<?xml version="1.0" encoding="UTF-8"?>
<svg width="128" height="180" viewBox="0 0 128 180" fill="none" xmlns="http://www.w3.org/2000/svg">
  <!-- Binder sheet background -->
  <rect x="4" y="4" width="120" height="172" rx="4" fill="#fff" stroke="#bbb" stroke-width="3"/>
  <!-- 3x3 grid lines -->
  <g stroke="#bbb" stroke-width="2">
    <line x1="4" y1="62" x2="124" y2="62"/>
    <line x1="4" y1="120" x2="124" y2="120"/>
    <line x1="44" y1="4" x2="44" y2="176"/>
    <line x1="84" y1="4" x2="84" y2="176"/>
  </g>
  <!-- Stylized Magic cards and placeholders, randomly mixed -->
  <!-- Card 1: Red MTG card -->
  <g>
    <rect x="8" y="8" width="32" height="52" rx="3" fill="#c33" stroke="#222" stroke-width="2"/>
    <rect x="12" y="12" width="24" height="8" rx="1.5" fill="#fff"/>
    <g stroke="#a55" stroke-width="1.2">
      <line x1="14" y1="16" x2="34" y2="16"/>
      <line x1="16" y1="18" x2="32" y2="18"/>
    </g>
    <rect x="14" y="22" width="20" height="14" rx="2" fill="#e77"/>
    <rect x="14" y="38" width="20" height="10" rx="1.5" fill="#fff"/>
    <g stroke="#bbb" stroke-width="1">
      <line x1="15" y1="41" x2="33" y2="41"/>
      <line x1="15" y1="43" x2="33" y2="43"/>
      <line x1="15" y1="45" x2="28" y2="45"/>
    </g>
  <rect x="28" y="54" width="10" height="6" rx="1" fill="none"/>
  </g>
  <!-- Card 2: Red MTG card -->
  <g>
    <rect x="48" y="8" width="32" height="52" rx="3" fill="#c33" stroke="#222" stroke-width="2"/>
    <rect x="52" y="12" width="24" height="8" rx="1.5" fill="#fff"/>
    <g stroke="#a55" stroke-width="1.2">
      <line x1="54" y1="16" x2="74" y2="16"/>
      <line x1="56" y1="18" x2="72" y2="18"/>
    </g>
    <rect x="54" y="22" width="20" height="14" rx="2" fill="#e77"/>
    <rect x="54" y="38" width="20" height="10" rx="1.5" fill="#fff"/>
    <g stroke="#bbb" stroke-width="1">
      <line x1="55" y1="41" x2="73" y2="41"/>
      <line x1="55" y1="43" x2="73" y2="43"/>
      <line x1="55" y1="45" x2="68" y2="45"/>
    </g>
  </g>
  <!-- Card 3: Placeholder (top right cell, inside pocket, column centered, adjusted left) -->
  <g>
  <rect x="94" y="30" width="20" height="24" rx="2" fill="#fff" stroke="#888" stroke-width="1.2"/>
    <g stroke="#bbb" stroke-width="1">
      <line x1="96" y1="36" x2="112" y2="36"/>
      <line x1="96" y1="38" x2="110" y2="38"/>
    </g>
    <text x="104" y="44" font-size="5" font-family="monospace" fill="#222" text-anchor="middle">R</text>
    <text x="104" y="50" font-size="4" font-family="monospace" fill="#222" text-anchor="middle">420</text>
  </g>
  <!-- Card 4: White MTG card (aligned with row) -->
  <g>
    <rect x="88" y="66" width="32" height="52" rx="3" fill="#fff" stroke="#ccc" stroke-width="2"/>
    <rect x="92" y="70" width="24" height="8" rx="1.5" fill="#fff"/>
    <g stroke="#aaa" stroke-width="1.2">
      <line x1="94" y1="74" x2="114" y2="74"/>
      <line x1="96" y1="76" x2="112" y2="76"/>
    </g>
    <rect x="94" y="80" width="20" height="14" rx="2" fill="#eee"/>
    <rect x="94" y="96" width="20" height="10" rx="1.5" fill="#fff"/>
    <g stroke="#bbb" stroke-width="1">
      <line x1="95" y1="99" x2="113" y2="99"/>
      <line x1="95" y1="101" x2="108" y2="101"/>
    </g>
  <rect x="110" y="112" width="10" height="6" rx="1" fill="none"/>
  </g>
  <!-- Card 5: Placeholder (middle center cell, inside pocket, column centered) -->
  <g>
    <rect x="54" y="88" width="20" height="24" rx="2" fill="#fff" stroke="#888" stroke-width="1.2"/>
    <g stroke="#bbb" stroke-width="1">
      <line x1="56" y1="94" x2="72" y2="94"/>
      <line x1="56" y1="96" x2="70" y2="96"/>
    </g>
    <text x="64" y="102" font-size="5" font-family="monospace" fill="#222" text-anchor="middle">MR</text>
    <text x="64" y="108" font-size="4" font-family="monospace" fill="#222" text-anchor="middle">422</text>
  </g>
  <!-- Card 6: White MTG card -->
  <g>
    <rect x="8" y="66" width="32" height="52" rx="3" fill="#fff" stroke="#ccc" stroke-width="2"/>
    <rect x="12" y="70" width="24" height="8" rx="1.5" fill="#fff"/>
    <g stroke="#aaa" stroke-width="1.2">
      <line x1="14" y1="74" x2="34" y2="74"/>
      <line x1="16" y1="76" x2="32" y2="76"/>
    </g>
    <rect x="14" y="80" width="20" height="14" rx="2" fill="#eee"/>
    <rect x="14" y="96" width="20" height="10" rx="1.5" fill="#fff"/>
    <g stroke="#bbb" stroke-width="1">
      <line x1="15" y1="99" x2="33" y2="99"/>
      <line x1="15" y1="101" x2="28" y2="101"/>
    </g>
  </g>
  <!-- Card 7: Placeholder (bottom right cell, inside pocket, column centered, adjusted left) -->
  <g>
  <rect x="94" y="146" width="20" height="24" rx="2" fill="#fff" stroke="#888" stroke-width="1.2"/>
    <g stroke="#bbb" stroke-width="1">
      <line x1="96" y1="152" x2="112" y2="152"/>
      <line x1="96" y1="154" x2="110" y2="154"/>
    </g>
    <text x="104" y="160" font-size="5" font-family="monospace" fill="#222" text-anchor="middle">R</text>
    <text x="104" y="166" font-size="4" font-family="monospace" fill="#222" text-anchor="middle">426</text>
  </g>
  <!-- Card 8: White MTG card -->
  <g>
  <rect x="48" y="124" width="32" height="50" rx="3" fill="#fff" stroke="#ccc" stroke-width="2"/>
  <rect x="52" y="128" width="24" height="8" rx="1.5" fill="#fff"/>
    <g stroke="#aaa" stroke-width="1.2">
      <line x1="54" y1="138" x2="74" y2="138"/>
      <line x1="56" y1="140" x2="72" y2="140"/>
    </g>
  <rect x="54" y="144" width="20" height="14" rx="2" fill="#eee"/>
  <rect x="54" y="160" width="20" height="10" rx="1.5" fill="#fff"/>
    <g stroke="#bbb" stroke-width="1">
      <line x1="55" y1="163" x2="73" y2="163"/>
      <line x1="55" y1="165" x2="68" y2="165"/>
    </g>
  <rect x="68" y="176" width="10" height="6" rx="1" fill="none"/>
  </g>
  <!-- Card 9: Placeholder (bottom left cell, inside pocket, column centered) -->
  <g>
    <rect x="14" y="146" width="20" height="24" rx="2" fill="#fff" stroke="#888" stroke-width="1.2"/>
    <g stroke="#bbb" stroke-width="1">
      <line x1="16" y1="152" x2="32" y2="152"/>
      <line x1="16" y1="154" x2="30" y2="154"/>
    </g>
    <text x="24" y="160" font-size="5" font-family="monospace" fill="#222" text-anchor="middle">MR</text>
    <text x="24" y="166" font-size="4" font-family="monospace" fill="#222" text-anchor="middle">424</text>
  </g>
</svg>
